<svg xmlns="http://www.w3.org/2000/svg" xmlns:xlink="http://www.w3.org/1999/xlink">
  <symbol viewBox="0 0 600 530" id="bluesky" xmlns="http://www.w3.org/2000/svg">
    <path d="m135.72 44.03c66.496 49.921 138.02 151.14 164.28 205.46 26.262-54.316 97.782-155.54 164.28-205.46 47.98-36.021 125.72-63.892 125.72 24.795 0 17.712-10.155 148.79-16.111 170.07-20.703 73.984-96.144 92.854-163.25 81.433 117.3 19.964 147.14 86.092 82.697 152.22-122.39 125.59-175.91-31.511-189.63-71.766-2.514-7.3797-3.6904-10.832-3.7077-7.8964-0.0174-2.9357-1.1937 0.51669-3.7077 7.8964-13.714 40.255-67.233 197.36-189.63 71.766-64.444-66.128-34.605-132.26 82.697-152.22-67.108 11.421-142.55-7.4491-163.25-81.433-5.9562-21.282-16.111-152.36-16.111-170.07 0-88.687 77.742-60.816 125.72-24.795z" fill="currentColor"/>
  </symbol>
  <symbol viewBox="0 0 16 16" id="github" xmlns="http://www.w3.org/2000/svg">
    <path class="bgithub" fill-rule="evenodd" clip-rule="evenodd" fill="currentColor" d="M8,0.2c-4.4,0-8,3.6-8,8c0,3.5,2.3,6.5,5.5,7.6 C5.9,15.9,6,15.6,6,15.4c0-0.2,0-0.7,0-1.4C3.8,14.5,3.3,13,3.3,13c-0.4-0.9-0.9-1.2-0.9-1.2c-0.7-0.5,0.1-0.5,0.1-0.5 c0.8,0.1,1.2,0.8,1.2,0.8C4.4,13.4,5.6,13,6,12.8c0.1-0.5,0.3-0.9,0.5-1.1c-1.8-0.2-3.6-0.9-3.6-4c0-0.9,0.3-1.6,0.8-2.1 c-0.1-0.2-0.4-1,0.1-2.1c0,0,0.7-0.2,2.2,0.8c0.6-0.2,1.3-0.3,2-0.3c0.7,0,1.4,0.1,2,0.3c1.5-1,2.2-0.8,2.2-0.8 c0.4,1.1,0.2,1.9,0.1,2.1c0.5,0.6,0.8,1.3,0.8,2.1c0,3.1-1.9,3.7-3.7,3.9C9.7,12,10,12.5,10,13.2c0,1.1,0,1.9,0,2.2 c0,0.2,0.1,0.5,0.6,0.4c3.2-1.1,5.5-4.1,5.5-7.6C16,3.8,12.4,0.2,8,0.2z"/>
  </symbol>
  <symbol viewBox="0 0 1920 1920" id="email" xmlns="http://www.w3.org/2000/svg">
    <path d="M0 1694.235h1920V226H0v1468.235ZM112.941 376.664V338.94H1807.06v37.723L960 1111.233l-847.059-734.57ZM1807.06 526.198v950.513l-351.134-438.89-88.32 70.475 378.353 472.998H174.042l378.353-472.998-88.32-70.475-351.134 438.89V526.198L960 1260.768l847.059-734.57Z" fill-rule="evenodd" fill="currentColor"/>
  </symbol>
  <symbol viewBox="0 0 16 16" id="rss" xmlns="http://www.w3.org/2000/svg">
    <g fill="currentColor">
      <circle cx="3" cy="13" r="2"/>
      <path d="M15 15h-2.7C12.3 8.8 7.2 3.7 1 3.7V1c7.7 0 14 6.3 14 14z"/>
      <path d="M10.3 15H7.7c0-3.7-3-6.7-6.7-6.7V5.7c5.1 0 9.3 4.2 9.3 9.3z"/>
    </g>
  </symbol>
</svg>
